<?xml version="1.0" standalone="no"?>
<!DOCTYPE svg PUBLIC "-//W3C//DTD SVG 20010904//EN"
 "http://www.w3.org/TR/2001/REC-SVG-20010904/DTD/svg10.dtd">
<svg version="1.0" xmlns="http://www.w3.org/2000/svg"
 width="459.000000pt" height="166.000000pt" viewBox="0 0 459.000000 166.000000"
 preserveAspectRatio="xMidYMid meet">

<g transform="translate(0.000000,166.000000) scale(0.100000,-0.100000)"
fill="#000000" stroke="none">
<path d="M680 1565 c-36 -8 -105 -35 -155 -59 -445 -221 -552 -794 -217 -1157
70 -76 169 -146 252 -179 122 -49 151 -54 290 -55 115 0 146 4 205 23 221 73
376 206 467 400 119 252 81 551 -98 774 -66 81 -119 126 -214 178 -117 64
-185 82 -335 86 -90 3 -150 -1 -195 -11z m333 -396 c186 -34 359 -105 378
-156 12 -33 -8 -75 -43 -87 -22 -8 -42 -2 -116 32 -111 52 -220 78 -378 93
-135 12 -301 1 -392 -26 -57 -17 -94 -9 -111 24 -31 57 0 93 101 115 171 38
369 40 561 5z m-110 -244 c139 -21 314 -83 370 -133 26 -23 22 -68 -8 -88 -25
-16 -29 -15 -123 28 -151 71 -216 83 -422 82 -132 -1 -187 -5 -224 -17 -65
-21 -105 -3 -106 49 0 32 29 52 100 68 126 29 270 33 413 11z m47 -250 c107
-24 238 -88 246 -120 7 -30 -10 -55 -38 -55 -10 0 -46 14 -79 31 -136 68 -326
90 -531 60 -79 -12 -100 -12 -112 -1 -21 17 -20 43 2 63 48 43 359 57 512 22z"/>
<path d="M3740 1055 l0 -45 50 0 50 0 0 45 0 45 -50 0 -50 0 0 -45z"/>
<path d="M3994 1077 c-19 -17 -29 -37 -33 -68 -5 -36 -10 -45 -28 -47 -19 -3
-23 -10 -23 -43 0 -35 3 -39 25 -39 l25 0 0 -135 0 -135 50 0 50 0 0 135 0
135 40 0 40 0 0 40 0 40 -40 0 c-36 0 -40 3 -40 24 0 28 15 36 54 29 27 -5 27
-5 24 38 l-3 44 -56 3 c-48 2 -61 -1 -85 -21z"/>
<path d="M1770 1056 c-84 -42 -137 -141 -128 -237 14 -140 133 -232 277 -214
55 7 143 44 157 66 4 6 6 55 6 108 l-1 96 -100 3 -101 3 0 -46 0 -45 55 0 c54
0 55 0 55 -29 0 -40 -32 -61 -93 -61 -89 0 -147 54 -147 138 0 117 98 180 206
133 l49 -22 28 31 c16 17 27 37 25 43 -2 7 -24 22 -48 35 -63 31 -177 31 -240
-2z"/>
<path d="M2177 963 c-4 -3 -7 -84 -7 -180 l0 -173 49 0 48 0 6 96 c6 111 20
138 77 155 40 12 40 13 40 61 0 44 -2 48 -25 48 -13 0 -40 -14 -60 -31 l-35
-31 0 31 c0 30 -2 31 -43 31 -24 0 -47 -3 -50 -7z"/>
<path d="M2529 947 c-61 -33 -105 -115 -95 -181 28 -188 289 -224 367 -51 57
126 -31 255 -174 255 -37 0 -68 -7 -98 -23z m135 -71 c62 -26 74 -123 19 -166
-79 -62 -182 30 -138 123 10 21 28 40 43 46 37 13 38 13 76 -3z"/>
<path d="M2985 956 c-134 -58 -140 -268 -10 -330 82 -39 160 -28 225 30 94 85
74 234 -40 295 -41 22 -130 25 -175 5z m120 -80 c40 -17 55 -42 55 -91 0 -48
-44 -95 -90 -95 -47 0 -90 47 -90 97 0 43 21 80 54 93 29 12 32 12 71 -4z"/>
<path d="M3310 960 c0 -6 30 -87 66 -180 l67 -170 47 0 47 0 67 171 c36 94 66
175 66 180 0 5 -22 9 -49 9 l-50 0 -38 -115 c-20 -63 -40 -115 -43 -115 -3 0
-23 52 -43 115 l-38 115 -50 0 c-27 0 -49 -5 -49 -10z"/>
<path d="M3740 790 l0 -180 50 0 50 0 0 180 0 180 -50 0 -50 0 0 -180z"/>
<path d="M4169 948 c122 -312 132 -342 116 -355 -11 -7 -25 -9 -40 -3 -19 7
-24 4 -39 -27 -20 -42 -14 -49 49 -58 53 -8 91 7 114 46 17 28 161 399 161
415 0 3 -24 4 -52 2 l-53 -3 -35 -112 c-19 -62 -37 -113 -40 -113 -3 0 -23 52
-43 115 l-38 115 -54 0 c-52 0 -54 -1 -46 -22z"/>
</g>
</svg>
